<?xml version="1.0" encoding="utf-8"?>
<!-- Generator: Adobe Illustrator 24.3.0, SVG Export Plug-In . SVG Version: 6.00 Build 0)  -->
<svg version="1.1" id="Capa_1" xmlns="http://www.w3.org/2000/svg" xmlns:xlink="http://www.w3.org/1999/xlink" x="0px" y="0px"
	 viewBox="0 0 1280 1024" style="enable-background:new 0 0 1280 1024;" xml:space="preserve">
<style type="text/css">
	.st0{fill:#88F900;}
	.st1{fill:pink;}
</style>
<g>
	<rect x="178.5" y="205.5" class="st0" width="342" height="400"/>
	<path d="M520,206v399H179V206H520 M521,205H178v401h343V205L521,205z"/>
</g>
<g>
	<circle class="st1" cx="940" cy="200" r="104.5"/>
	<path d="M940,96c57.35,0,104,46.65,104,104s-46.65,104-104,104s-104-46.65-104-104S882.65,96,940,96 M940,95
		c-57.99,0-105,47.01-105,105s47.01,105,105,105s105-47.01,105-105S997.99,95,940,95L940,95z"/>
</g>
<g>
	<g>
		<path d="M734.97,415.53c-34.59,82.42-51.4,171.32-89.27,252.46c-34.7,74.35-95.19,153.79-185.16,154.79
			c-41.66,0.46-83.01-15.36-115.27-41.42c-33.34-26.94-56.73-64.75-70.28-105.11c-29.05-86.56-15.93-186.46,30.88-264.4
			c21.76-36.24,52.9-69.4,93.82-83.28c20.56-6.97,43.04-9.09,64.38-4.63c21.02,4.39,39.55,15.48,53.93,31.34
			c30.61,33.76,40.78,81.62,45.19,125.6c4.81,47.96,3.35,96.31,9.83,144.14c6.28,46.36,18.38,92.01,37.39,134.81
			c16.81,37.85,39.14,77.5,75.84,99.24c37.32,22.11,83.84,21.5,125.31,14.43c41.56-7.09,81.66-22.62,117.3-45.13
			c71.37-45.08,122.14-118.36,140.26-200.74c4.37-19.87,7.5-40.72,7.07-61.11c-0.37-17.53-4.63-36.47-19.9-47.04
			c-15.25-10.56-34.93-7.71-51.44-2c-20.29,7.02-38.68,18.59-57.86,28.05c-43.43,21.42-88.93,38.59-135.66,51.25
			c-44.97,12.18-91.73,21.47-138.52,20.36c-45.99-1.09-90.28-14.15-126.7-42.85c-33.9-26.71-60.11-63-78.07-102.04
			c-18.28-39.75-28.07-83.43-28.55-127.17c-0.51-46.94,10.62-92.85,29.25-135.77c17.33-39.91,39.8-78.9,68.67-111.62
			c13.66-15.49,29-29.6,46.23-41.04c8.62-5.72,17.68-10.77,27.14-14.98c10.64-4.74,22.44-9.21,34.29-8.26
			c22.26,1.78,31.5,24.23,35.56,43.2c4.93,23.03,6.74,46.9,6.84,70.42c0.2,47.85-7.74,95.3-18.04,141.89
			c-10.43,47.16-23.35,93.73-33.88,140.87c-5.23,23.43-9.89,47-13.3,70.77c-2.35,16.43-3.44,35.78,14.82,43.08
			c15.39,6.15,35.74,1.21,48.04,14.36c11.42,12.21,10.55,31.17,18.64,45.25c9.85,17.15,29.25,17.07,46.73,15.11
			c25.7-2.9,51.38-6.03,77.09-8.86c15.39-1.69,40.59-2.65,46.47,15.83c5.77,18.14-13.58,39.23-0.27,56.33
			c5.2,6.69,13.69,7.33,21.41,5.49c9.63-2.3,19.04-6.79,28.05-10.8c18.86-8.4,37-18.41,54.18-29.85
			c70.69-47.06,123.71-117.61,148.67-198.84c13.11-42.68,18.6-87.78,15.75-132.35c-0.66-10.35-4.31-26.2,9.03-29.82
			c9.25-2.51,20.28-2.33,29.82-2.32c19.2,0.02,40.92,3.76,52.58,20.73c12.17,17.71,8.44,41.34-0.78,59.39
			c-5.03,9.85-11.63,18.8-18.49,27.43c-7.25,9.12-14.41,18.94-23.97,25.78c-1.56,1.11-0.06,3.72,1.51,2.59
			c9.38-6.7,16.38-16.01,23.53-24.93c6.71-8.38,13.24-16.99,18.44-26.41c9.48-17.19,14.38-38.41,6.68-57.25
			c-6.79-16.61-22.48-25.72-39.55-28.73c-9.16-1.62-18.51-1.82-27.79-1.43c-8.24,0.35-19.3-0.24-26.76,3.73
			c-7.97,4.23-8.54,13.55-7.99,21.57c0.78,11.4,1.51,22.75,1.46,34.18c-0.1,23.26-2.42,46.5-6.91,69.33
			c-8.92,45.42-26.29,89.19-51.38,128.11c-23.07,35.79-52.56,67.43-86.45,93.18c-16.85,12.8-34.79,24.17-53.58,33.91
			c-9.51,4.93-19.23,9.45-29.14,13.51c-9.66,3.96-25.06,12.16-34.38,3.71c-7.39-6.7-6.01-18.88-3.83-27.51
			c2.54-10.09,6.5-21.08,2.38-31.32c-6.05-15.03-24.45-17.44-38.63-17c-11.41,0.35-22.84,2.22-34.17,3.53
			c-13.17,1.51-26.34,3.03-39.51,4.54c-20.19,2.32-47.03,8.4-58.47-13.63c-7.34-14.13-6.96-32.22-18.27-44.3
			c-11.9-12.71-30.77-9.46-46.03-13.98c-25.54-7.56-16.56-38.89-13.29-58.26c4-23.73,9.07-47.27,14.58-70.7
			c21.99-93.53,52.46-187.99,47.44-285.24c-1.11-21.56-2.92-44.72-10.08-65.24c-5.73-16.43-16.97-31.04-35.62-32.09
			c-11.02-0.62-21.83,3.12-31.83,7.35c-8.96,3.79-17.6,8.32-25.85,13.48c-17.29,10.82-32.82,24.3-46.65,39.25
			c-29.22,31.57-51.84,69.47-69.77,108.41c-19.33,41.98-32.09,86.97-33.53,133.34c-2.64,85.23,30.42,173.78,93.42,232.26
			c32.34,30.02,71.99,48.26,115.75,53.72c45.68,5.7,92.1-0.99,136.67-11.12c47.47-10.79,93.86-26.23,138.36-45.97
			c21.57-9.57,42.13-20.85,63.2-31.4c17.75-8.88,39.92-18.53,60.07-12.71c22.5,6.49,28.94,30.17,29.12,51.02
			c0.18,21.53-3.25,43.39-8.23,64.28c-10.16,42.6-29.14,83.1-55.52,118.08c-53.06,70.37-136.52,116.2-224.34,123.5
			c-22.97,1.91-46.52,1.14-68.8-5.23c-21.92-6.27-40.99-18.41-56.62-34.92c-15.16-16.02-26.83-35.04-36.8-54.61
			c-11.07-21.71-20.22-44.36-27.59-67.58c-14.88-46.87-21.92-95.4-24.34-144.42c-2.41-48.76-2.1-98.44-15.47-145.81
			c-10.86-38.49-32.7-77.54-71.03-94.05c-38.02-16.37-82.85-8.25-116.89,13.63c-35.5,22.82-60.86,58.77-78.68,96.41
			c-19.88,41.98-30.85,88.13-32.03,134.57c-2.12,83.8,28.85,174.75,101.35,222.66c33.41,22.08,74.19,34.18,114.33,30.66
			c40.77-3.58,77.18-24.29,106.08-52.52c63.12-61.65,90.94-149.91,116.43-231.94c13.01-41.88,25.81-83.91,42.8-124.4
			C738.61,414.55,735.71,413.78,734.97,415.53L734.97,415.53z"/>
	</g>
</g>
</svg>
